# xmcd
#
# Track frame offsets:
#	150
#	25053
#	49300
#	70625
#	94393
#	116788
#	139475
#	159955
#	183333
#	209030
#
# Disc length: 3028 seconds
#
# Revision: 1
# Processed by: cddbd v1.4PL0 Copyright (c) Steve Scherf et al.
# Submitted via: audiograbber 1.81.02
#
DISCID=930bd20a
DTITLE=BONG HONG - TREN PHIM TRANG
DYEAR=1900
DGENRE=
TTITLE0=NGUOI YEU TOI KHOC
TTITLE1=NANG PARIS NANG SAI GON
TTITLE2=TU GIONG HAT EM
TTITLE3=DEM XUAN
TTITLE4=GIOT NUOC MAT NGA
TTITLE5=BONG NGAY QUA
TTITLE6=CUOI CUNG CHO MOT TINH YEU
TTITLE7=TINH NHO
TTITLE8=CON TUOI NAO CHO EM
TTITLE9=BUON VUONG MAU AO
EXTD=
EXTT0=
EXTT1=
EXTT2=
EXTT3=
EXTT4=
EXTT5=
EXTT6=
EXTT7=
EXTT8=
EXTT9=
PLAYORDER=
